<svg width="74" height="74" viewBox="0 0 74 74" fill="none" xmlns="http://www.w3.org/2000/svg">
<path d="M67.0625 31.6812C65.4437 21.5062 56.6562 13.875 46.4813 13.875H27.75C17.3438 13.875 8.55625 21.5062 6.9375 31.6812C5.31875 42.55 4.625 47.4062 4.625 49.2562C4.625 60.5875 20.1187 64.2875 25.2062 54.1125L29.1375 46.25H44.8625L48.7938 54.1125C53.8813 64.2875 69.375 60.5875 69.375 49.2562C69.375 47.6375 69.375 49.7188 67.0625 31.6812ZM64.75 49.2562C64.75 55.7312 55.7313 58.0438 52.9562 52.0312L48.3312 42.7812C47.8687 42.0875 47.175 41.625 46.25 41.625H27.75C26.825 41.625 26.1313 42.0875 25.6688 43.0125L21.0438 52.2625C18.2688 58.0438 9.25 55.7312 9.25 49.2562L11.5625 32.375C12.7188 24.5125 19.6562 18.5 27.5187 18.5H46.25C54.3438 18.5 61.05 24.5125 62.2062 32.375C62.4375 32.6063 64.9813 50.4125 64.75 49.2562Z" fill="#6064FF"/>
<path d="M32.375 30.0625C32.375 31.45 31.45 32.375 30.0625 32.375H27.75V34.6875C27.75 36.075 26.825 37 25.4375 37C24.05 37 23.125 36.075 23.125 34.6875V32.375H20.8125C19.425 32.375 18.5 31.45 18.5 30.0625C18.5 28.675 19.425 27.75 20.8125 27.75H23.125V25.4375C23.125 24.05 24.05 23.125 25.4375 23.125C26.825 23.125 27.75 24.05 27.75 25.4375V27.75H30.0625C31.45 27.75 32.375 28.675 32.375 30.0625ZM46.25 30.0625C46.25 31.45 45.325 32.375 43.9375 32.375C42.55 32.375 41.625 31.45 41.625 30.0625C41.625 28.675 42.55 27.75 43.9375 27.75C45.325 27.75 46.25 28.675 46.25 30.0625ZM50.875 34.6875C50.875 36.075 49.95 37 48.5625 37C47.175 37 46.25 36.075 46.25 34.6875C46.25 33.3 47.175 32.375 48.5625 32.375C49.95 32.375 50.875 33.3 50.875 34.6875ZM55.5 30.0625C55.5 31.45 54.575 32.375 53.1875 32.375C51.8 32.375 50.875 31.45 50.875 30.0625C50.875 28.675 51.8 27.75 53.1875 27.75C54.575 27.75 55.5 28.675 55.5 30.0625ZM46.25 25.4375C46.25 24.05 47.175 23.125 48.5625 23.125C49.95 23.125 50.875 24.05 50.875 25.4375C50.875 26.825 49.95 27.75 48.5625 27.75C47.175 27.75 46.25 26.825 46.25 25.4375Z" fill="#6064FF"/>
</svg>
