<svg width="40" height="40" viewBox="0 0 40 40" fill="none" xmlns="http://www.w3.org/2000/svg">
<g clip-path="url(#clip0_24_30)">
<path d="M20 3.8147e-05C9.00781 3.8147e-05 0 9.08598 0 20.0782C0 31.0065 8.92578 40 20 40C31.0605 40 40 31.02 40 20.0782C40 9.08598 30.9922 3.8147e-05 20 3.8147e-05ZM23.5156 37.3047C22.3908 37.5391 21.1953 37.6563 20 37.6563C18.8047 37.6563 17.6092 37.5391 16.4844 37.3047V31.8203C16.4844 30.5078 16.8359 30.0391 17.3047 29.4061C17.5434 29.1333 17.6873 28.8886 18.7577 27.2736L16.9531 26.9922C12.3123 26.3125 10.4844 23.8983 9.75766 22.0233C8.82016 19.5157 9.31242 16.3749 11.0001 14.383C11.2579 14.0781 11.4688 13.5624 11.2814 13.0234C10.9295 11.9453 10.9766 10.2344 11.2109 9.57801C12.4536 9.75558 13.7314 10.6458 14.797 11.2891C15.2881 11.5757 15.5456 11.5 15.7812 11.5235C16.6375 11.3453 17.9734 10.9141 20.0234 10.9141C21.2891 10.9141 22.6252 11.1014 23.9377 11.4764C24.1723 11.471 24.5495 11.6706 25.2033 11.2891C26.3171 10.6104 27.5516 9.75074 28.7891 9.57801C29.0234 10.2344 29.0705 11.9452 28.7189 13.0234C28.5312 13.5624 28.742 14.0781 29.0002 14.383C30.6876 16.3752 31.1798 19.5157 30.2423 22.0233C29.5157 23.8983 27.6877 26.3126 23.0469 26.9922L21.2423 27.2736C22.3486 28.9429 22.4652 29.1432 22.6956 29.4061C23.1641 30.0391 23.5156 30.5079 23.5156 31.8204V37.3047ZM25.8594 36.625V31.8203C25.8594 30.4844 25.578 29.5938 25.203 28.9374C28.7655 27.9768 31.297 25.8671 32.4219 22.8436C33.6172 19.6564 33.0783 15.8594 31.0858 13.2343C31.4377 11.6642 31.4377 9.15621 30.5939 7.98433C30.2187 7.46894 29.703 7.18754 29.0469 7.18754H29.0234C27.206 7.28582 25.7757 8.20105 24.2421 9.13269C22.8359 8.75769 21.4062 8.57027 19.9765 8.57027C18.5235 8.57027 17.0702 8.78121 15.7815 9.13277C14.1672 8.15918 12.7505 7.28332 10.8828 7.18754C10.2969 7.18754 9.78109 7.46894 9.40602 7.98441C8.56258 9.15629 8.56258 11.6641 8.91414 13.2343C6.92164 15.8594 6.38266 19.6796 7.57805 22.8436C8.70289 25.8671 11.2343 27.9768 14.797 28.9374C14.5062 29.4461 14.276 30.1026 14.1854 30.991C13.4659 31.239 12.8417 31.3199 12.2613 31.1493C11.6491 30.9684 11.1721 30.5597 10.7577 29.8627C9.82687 28.299 8.24148 27.0225 6.43641 27.1885L6.64234 29.5231C7.47828 29.4465 8.31016 30.3309 8.74234 31.0599C9.45516 32.2605 10.4155 33.0479 11.5975 33.3969C12.4748 33.6555 13.2769 33.6493 14.1405 33.465V36.625C7.32031 34.2343 2.34375 27.7188 2.34375 20.0782C2.34375 10.375 10.2969 2.34379 20 2.34379C29.7031 2.34379 37.6562 10.375 37.6562 20.0782C37.6562 27.7188 32.6797 34.2344 25.8594 36.625Z" fill="#F8F8F8"/>
</g>
<defs>
<clipPath id="clip0_24_30">
<rect width="40" height="40" fill="white"/>
</clipPath>
</defs>
</svg>
