<svg width="40" height="40" viewBox="0 0 40 40" fill="none" xmlns="http://www.w3.org/2000/svg">
<g clip-path="url(#clip0_24_22)">
<path d="M30.0002 0.000495911H10.0007C4.50136 0.000495911 0.000976562 4.50087 0.000976562 10.0003V30.0007C0.000976562 35.4986 4.50136 40.0005 10.0007 40.0005H30.0002C35.4996 40.0005 40 35.4986 40 30.0007V10.0003C40 4.50087 35.4996 0.000495911 30.0002 0.000495911ZM36.6666 30.0007C36.6666 33.6756 33.6772 36.6671 30.0002 36.6671H10.0007C6.32533 36.6671 3.33439 33.6756 3.33439 30.0007V10.0003C3.33439 6.32436 6.32533 3.33391 10.0007 3.33391H30.0002C33.6772 3.33391 36.6666 6.32436 36.6666 10.0003V30.0007Z" fill="#F8F8F8"/>
<path d="M30.8347 11.6667C32.2153 11.6667 33.3346 10.5475 33.3346 9.16678C33.3346 7.7861 32.2153 6.66684 30.8347 6.66684C29.454 6.66684 28.3347 7.7861 28.3347 9.16678C28.3347 10.5475 29.454 11.6667 30.8347 11.6667Z" fill="#DEDEDE"/>
<path d="M20 10.0003C14.4761 10.0003 10.0002 14.4766 10.0002 20C10.0002 25.5214 14.4761 30.0007 20 30.0007C25.5223 30.0007 29.9998 25.5214 29.9998 20C29.9998 14.4766 25.5223 10.0003 20 10.0003ZM20 26.6673C16.3185 26.6673 13.3337 23.6824 13.3337 20C13.3337 16.3176 16.3185 13.3337 20 13.3337C23.6815 13.3337 26.6663 16.3176 26.6663 20C26.6663 23.6824 23.6815 26.6673 20 26.6673Z" fill="#F8F8F8"/>
</g>
<defs>
<clipPath id="clip0_24_22">
<rect width="40" height="40" fill="white" transform="translate(0 0.000495911)"/>
</clipPath>
</defs>
</svg>
