<svg width="40" height="40" viewBox="0 0 40 40" fill="none" xmlns="http://www.w3.org/2000/svg">
<g clip-path="url(#clip0_24_27)">
<path d="M12.5006 33.0474H7.03188V15.3912H12.5006V33.0474ZM13.0463 9.76585C13.0463 7.99796 11.6119 6.56303 9.845 6.56303C8.07125 6.56303 6.64062 7.99796 6.64062 9.76585C6.64062 11.5344 8.07133 12.9693 9.845 12.9693C11.612 12.9693 13.0463 11.5344 13.0463 9.76585ZM32.9688 23.3337C32.9688 18.594 31.9675 15.0787 26.4306 15.0787C23.7702 15.0787 21.9842 16.4092 21.2552 17.7929H21.25V15.3912H15.9375V33.0474H21.25V24.281C21.25 21.9851 21.8344 19.761 24.6802 19.761C27.4872 19.761 27.5781 22.3864 27.5781 24.4268V33.0474H32.9688V23.3337ZM40 35.313V4.68803C40 2.10319 37.8973 0.000534058 35.3125 0.000534058H4.6875C2.10266 0.000534058 0 2.10319 0 4.68803V35.313C0 37.8979 2.10266 40.0005 4.6875 40.0005H35.3125C37.8973 40.0005 40 37.8979 40 35.313ZM35.3125 3.12553C36.174 3.12553 36.875 3.82655 36.875 4.68803V35.313C36.875 36.1745 36.174 36.8755 35.3125 36.8755H4.6875C3.82602 36.8755 3.125 36.1745 3.125 35.313V4.68803C3.125 3.82655 3.82602 3.12553 4.6875 3.12553H35.3125Z" fill="#F8F8F8"/>
</g>
<defs>
<clipPath id="clip0_24_27">
<rect width="40" height="40" fill="white" transform="translate(0 0.000534058)"/>
</clipPath>
</defs>
</svg>
